<?xml version="1.0" encoding="UTF-8" standalone="no"?>
<!DOCTYPE svg PUBLIC "-//W3C//DTD SVG 1.1//EN" "http://www.w3.org/Graphics/SVG/1.1/DTD/svg11.dtd">
<svg width="100%" height="100%" viewBox="0 0 94 64" version="1.1" xmlns="http://www.w3.org/2000/svg" xmlns:xlink="http://www.w3.org/1999/xlink" xml:space="preserve" xmlns:serif="http://www.serif.com/" style="fill-rule:evenodd;clip-rule:evenodd;stroke-linejoin:round;stroke-miterlimit:2;">
    <path d="M27.665,5.817l8.964,10.439c0.384,0.497 -0.125,0.864 -0.125,0.864c-3.592,1.938 -6.191,4.865 -8.415,8.218c-0.442,0.665 -0.918,0.182 -0.918,0.182l-11.358,-8.506c0,-0 -0.489,-0.287 -0.061,-0.855c3.326,-4.417 6.347,-7.531 11.178,-10.472c0,-0 0.366,-0.345 0.735,0.13Z" style="fill:rgb(212,56,39);fill-rule:nonzero;"/>
    <path d="M11.763,22.824l13.425,6.489c0.637,0.247 0.318,0.828 0.318,0.828c-1.855,4.414 -2.984,8.14 -3.857,12.655c-0.146,0.756 -0.658,0.514 -0.658,0.514l-15.101,-6.557c0,-0 -0.453,-0.169 -0.264,-0.751c0.671,-2.066 4.086,-10.312 5.458,-13.007c0,-0 0.24,-0.409 0.679,-0.171Z" style="fill:rgb(200,46,38);fill-rule:nonzero;"/>
    <path d="M4.251,43.67c3.071,0.946 15.956,3.914 15.956,3.914c0.772,0.237 0.542,0.816 0.542,0.816c-0.889,7 -0.696,12.343 -0.696,14.189c0,0.818 -0.595,0.698 -0.595,0.698l-18.804,-0c-0.816,-0 -0.638,-0.737 -0.638,-0.737c0.154,-2.332 0.826,-8.966 3.419,-18.479c0,-0 0.128,-0.613 0.816,-0.401Z" style="fill:rgb(173,34,34);fill-rule:nonzero;"/>
    <path d="M65.777,5.817l-8.964,10.439c-0.384,0.497 0.125,0.864 0.125,0.864c3.592,1.938 6.191,4.865 8.415,8.218c0.441,0.665 0.918,0.182 0.918,0.182l11.358,-8.506c0,-0 0.489,-0.287 0.061,-0.855c-3.326,-4.417 -6.347,-7.531 -11.178,-10.472c0,-0 -0.366,-0.345 -0.735,0.13Z" style="fill:rgb(212,56,39);fill-rule:nonzero;"/>
    <path d="M46.721,14.752c1.509,-0 4.303,0.145 5.621,0.363c0.689,0.115 0.86,-0.341 0.86,-0.341l5.642,-11.791c0,-0 0.378,-0.444 -0.412,-0.733c-4.212,-1.541 -6.452,-2.25 -11.711,-2.25c-5.196,-0 -7.499,0.709 -11.711,2.25c-0.79,0.289 -0.412,0.733 -0.412,0.733l5.642,11.791c0,-0 0.171,0.456 0.86,0.341c1.318,-0.218 4.112,-0.363 5.621,-0.363Z" style="fill:rgb(222,83,68);fill-rule:nonzero;"/>
    <path d="M81.679,22.824l-13.425,6.489c-0.637,0.247 -0.318,0.828 -0.318,0.828c1.855,4.414 2.984,8.14 3.857,12.655c0.146,0.756 0.658,0.514 0.658,0.514l15.101,-6.557c0,-0 0.452,-0.169 0.263,-0.751c-0.67,-2.066 -4.085,-10.312 -5.457,-13.007c0,-0 -0.24,-0.409 -0.679,-0.171Z" style="fill:rgb(200,46,38);fill-rule:nonzero;"/>
    <path d="M89.19,43.67c-3.07,0.946 -15.955,3.914 -15.955,3.914c-0.772,0.237 -0.542,0.816 -0.542,0.816c0.889,7 0.696,12.343 0.696,14.189c0,0.818 0.595,0.698 0.595,0.698l18.804,-0c0.817,-0 0.638,-0.737 0.638,-0.737c-0.154,-2.332 -0.826,-8.966 -3.419,-18.479c0,-0 -0.129,-0.613 -0.817,-0.401Z" style="fill:rgb(173,34,34);fill-rule:nonzero;"/>
</svg>
